<svg width="28" height="28" viewBox="0 0 28 28" fill="none" xmlns="http://www.w3.org/2000/svg">
<path d="M14 2.33334C7.55998 2.33334 2.33331 7.56001 2.33331 14C2.33331 20.44 7.55998 25.6667 14 25.6667C20.44 25.6667 25.6666 20.44 25.6666 14C25.6666 7.56001 20.44 2.33334 14 2.33334ZM14 5.83334C15.9366 5.83334 17.5 7.39668 17.5 9.33334C17.5 11.27 15.9366 12.8333 14 12.8333C12.0633 12.8333 10.5 11.27 10.5 9.33334C10.5 7.39668 12.0633 5.83334 14 5.83334ZM14 22.4C11.0833 22.4 8.50498 20.9067 6.99998 18.6433C7.03498 16.3217 11.6666 15.05 14 15.05C16.3216 15.05 20.965 16.3217 21 18.6433C19.495 20.9067 16.9166 22.4 14 22.4Z" fill="black"/>
</svg>
