<svg width="65" height="65" viewBox="0 0 65 65" fill="none" xmlns="http://www.w3.org/2000/svg">
<path d="M52.8125 6.09375H18.2812C16.1264 6.09375 14.0597 6.94977 12.536 8.47351C11.0123 9.99724 10.1563 12.0639 10.1562 14.2188V56.875C10.1562 57.4137 10.3703 57.9304 10.7512 58.3113C11.1321 58.6922 11.6488 58.9062 12.1875 58.9062H48.75C49.2887 58.9062 49.8054 58.6922 50.1863 58.3113C50.5672 57.9304 50.7812 57.4137 50.7812 56.875C50.7812 56.3363 50.5672 55.8196 50.1863 55.4387C49.8054 55.0578 49.2887 54.8438 48.75 54.8438H14.2188C14.2188 53.7663 14.6468 52.733 15.4086 51.9711C16.1705 51.2093 17.2038 50.7812 18.2812 50.7812H52.8125C53.3512 50.7812 53.8679 50.5672 54.2488 50.1863C54.6297 49.8054 54.8438 49.2887 54.8438 48.75V8.125C54.8438 7.58628 54.6297 7.06962 54.2488 6.68869C53.8679 6.30776 53.3512 6.09375 52.8125 6.09375ZM50.7812 46.7188H18.2812C16.8547 46.7168 15.453 47.0926 14.2188 47.808V14.2188C14.2188 13.1413 14.6468 12.108 15.4086 11.3461C16.1705 10.5843 17.2038 10.1563 18.2812 10.1562H50.7812V46.7188Z" fill="black"/>
</svg>
