<svg width="41" height="41" viewBox="0 0 41 41" fill="none" xmlns="http://www.w3.org/2000/svg">
<path d="M36.4067 11.7508L29.2493 4.59498C29.0114 4.35697 28.7289 4.16817 28.4179 4.03935C28.107 3.91054 27.7737 3.84424 27.4372 3.84424C27.1006 3.84424 26.7674 3.91054 26.4564 4.03935C26.1455 4.16817 25.863 4.35697 25.625 4.59498L5.87615 24.3439C5.63716 24.5809 5.44769 24.8632 5.31874 25.1741C5.18979 25.4851 5.12394 25.8186 5.12501 26.1552V33.3126C5.12501 33.9922 5.39499 34.644 5.87555 35.1246C6.35611 35.6051 7.0079 35.8751 7.68751 35.8751H34.5938C34.9336 35.8751 35.2595 35.7401 35.4997 35.4998C35.74 35.2596 35.875 34.9337 35.875 34.5939C35.875 34.254 35.74 33.9282 35.4997 33.6879C35.2595 33.4476 34.9336 33.3126 34.5938 33.3126H18.4692L36.4067 15.3751C36.6447 15.1371 36.8335 14.8546 36.9624 14.5437C37.0912 14.2328 37.1575 13.8995 37.1575 13.5629C37.1575 13.2264 37.0912 12.8931 36.9624 12.5822C36.8335 12.2712 36.6447 11.9887 36.4067 11.7508ZM21.7813 12.0615L24.4543 14.7345L10.8906 28.2981L8.21763 25.6251L21.7813 12.0615ZM7.68751 33.3126V28.7177L12.2824 33.3126H7.68751ZM15.375 32.7825L12.7036 30.1095L26.2656 16.5458L28.9386 19.2189L15.375 32.7825ZM30.75 17.4075L23.5942 10.2501L27.438 6.40635L34.5938 13.5637L30.75 17.4075Z" fill="black"/>
</svg>
