<svg width="45" height="39" viewBox="0 0 45 39" fill="none" xmlns="http://www.w3.org/2000/svg">
<path d="M9.70926 15.6133H3.23645V17.2315H9.70926V15.6133Z" fill="black"/>
<path d="M9.70926 9.14038H3.23645V12.3768H9.70926V9.14038Z" fill="black"/>
<path d="M21.0366 15.6133H14.5638V17.2315H21.0366V15.6133Z" fill="black"/>
<path d="M21.0366 9.14038H14.5638V12.3768H21.0366V9.14038Z" fill="black"/>
<path d="M44.8302 31.917L35.4228 2.47791C34.9384 0.965656 33.5411 0 32.0322 0C31.6736 0 31.3077 0.0553711 30.949 0.169893L30.947 0.170596L25.3998 1.94212C24.8854 2.10727 24.4409 2.38386 24.0696 2.72831C23.592 1.32416 22.2776 0.308145 20.7119 0.307266H14.8886C13.7729 0.308057 12.7896 0.831095 12.1366 1.63389C11.4835 0.831095 10.5001 0.308057 9.38454 0.307266H3.56116C1.59408 0.308233 0.000439454 1.90108 0 3.8686V34.7741C0.000439454 36.7416 1.59408 38.3344 3.56116 38.3352H9.38445C10.5001 38.3344 11.4835 37.8113 12.1365 37.0086C12.7895 37.8114 13.7729 38.3344 14.8885 38.3352H20.7118C22.6789 38.3344 24.2726 36.7416 24.273 34.7741V10.1162L32.4988 35.8583C32.9839 37.3706 34.3813 38.3361 35.8905 38.3353C36.2499 38.3353 36.6166 38.28 36.9745 38.1662L42.5221 36.3931C44.0344 35.9088 45.0008 34.5118 45 33.0026C45.0001 32.6424 44.9456 32.2757 44.8302 31.917ZM11.3275 34.7741C11.3255 35.8471 10.4571 36.7147 9.38445 36.7171H3.56116C2.48854 36.7148 1.62009 35.8471 1.61816 34.7741V3.8686C1.62009 2.79563 2.48854 1.92718 3.56116 1.9256H9.38445C10.4571 1.92718 11.3254 2.79554 11.3275 3.8686V34.7741ZM22.6549 34.7741C22.653 35.8471 21.7845 36.7147 20.7119 36.7171H14.8886C13.816 36.7148 12.9476 35.8471 12.9457 34.7741V3.8686C12.9476 2.79563 13.816 1.92718 14.8886 1.9256H20.7119C21.7845 1.92718 22.653 2.79554 22.6549 3.8686V34.7741ZM42.0291 34.8524L36.4823 36.6246C36.284 36.6879 36.0857 36.7171 35.8906 36.7171C35.0697 36.7163 34.3032 36.1909 34.04 35.3651L24.633 5.92613C24.5693 5.72784 24.5402 5.52947 24.5402 5.33436C24.5406 4.51337 25.0665 3.74696 25.8925 3.4839L31.4392 1.7115H31.44C31.638 1.6483 31.8363 1.61833 32.0322 1.61833C32.8529 1.61912 33.6188 2.14462 33.882 2.97106L43.2894 32.4101C43.3527 32.6085 43.3818 32.8067 43.3818 33.0027C43.3811 33.8228 42.8556 34.5892 42.0291 34.8524Z" fill="black"/>
<path d="M30.9463 0.170685C30.9474 0.170685 30.9482 0.170685 30.949 0.169982L31.0423 0.139923L30.9463 0.170685Z" fill="black"/>
<path d="M29.7496 16.6215L30.2419 18.1623L36.4081 16.1924L35.9151 14.6508L29.7496 16.6215Z" fill="black"/>
<path d="M33.9444 8.48535L27.7789 10.4552L28.7643 13.5384L34.9297 11.5678L33.9444 8.48535Z" fill="black"/>
</svg>
