<svg width="22" height="21" viewBox="0 0 22 21" fill="none" xmlns="http://www.w3.org/2000/svg">
<path d="M21.4283 8.11812C21.3345 7.82986 21.1576 7.5758 20.9197 7.38795C20.6818 7.2001 20.3936 7.08686 20.0914 7.06249L14.5602 6.61624L12.4246 1.45155C12.3091 1.17013 12.1125 0.929412 11.8598 0.759996C11.6072 0.59058 11.3099 0.500122 11.0057 0.500122C10.7015 0.500122 10.4041 0.59058 10.1515 0.759996C9.89882 0.929412 9.70225 1.17013 9.58675 1.45155L7.453 6.6153L1.91894 7.06249C1.61629 7.08809 1.32793 7.20243 1.08998 7.39118C0.852027 7.57994 0.67507 7.83472 0.581278 8.12361C0.487486 8.41249 0.481031 8.72263 0.56272 9.01516C0.64441 9.3077 0.810612 9.56962 1.0405 9.76812L5.25925 13.4084L3.97394 18.8516C3.90302 19.1471 3.92129 19.457 4.02642 19.7422C4.13155 20.0273 4.31884 20.2749 4.56462 20.4537C4.81041 20.6325 5.10366 20.7344 5.40734 20.7466C5.71102 20.7588 6.0115 20.6807 6.27082 20.5222L11.0052 17.6084L15.7424 20.5222C16.0017 20.6798 16.3018 20.7571 16.6049 20.7445C16.9081 20.7318 17.2007 20.6298 17.446 20.4512C17.6913 20.2725 17.8782 20.0254 17.9833 19.7407C18.0883 19.4561 18.1068 19.1467 18.0364 18.8516L16.7464 13.4075L20.9652 9.76718C21.1969 9.56902 21.3647 9.30652 21.4471 9.01296C21.5296 8.71939 21.523 8.40796 21.4283 8.11812ZM19.9902 8.63093L15.4246 12.5684C15.3204 12.6582 15.243 12.7748 15.2007 12.9056C15.1583 13.0364 15.1528 13.1763 15.1846 13.31L16.5796 19.1975C16.5832 19.2056 16.5835 19.2148 16.5806 19.2232C16.5776 19.2315 16.5715 19.2385 16.5636 19.2425C16.5468 19.2556 16.5421 19.2528 16.528 19.2425L11.398 16.0878C11.2797 16.0157 11.1437 15.9777 11.0052 15.9781V1.99999C11.0277 1.99999 11.0305 2.00749 11.038 2.02437L13.3489 7.61187C13.4017 7.73958 13.4887 7.85024 13.6004 7.93164C13.712 8.01303 13.844 8.06199 13.9818 8.07312L19.9733 8.55687C19.9883 8.55687 19.9968 8.55687 20.0052 8.58405C20.0136 8.61124 20.0052 8.62155 19.9902 8.63093Z" fill="black"/>
</svg>
