<svg width="22" height="22" viewBox="0 0 22 22" fill="none" xmlns="http://www.w3.org/2000/svg">
<path d="M20.9646 10.1166L16.7459 13.7569L18.0312 19.2009C18.1021 19.4965 18.0838 19.8064 17.9787 20.0915C17.8736 20.3767 17.6863 20.6243 17.4405 20.8031C17.1947 20.9818 16.9015 21.0838 16.5978 21.0959C16.2941 21.1081 15.9936 21.0301 15.7343 20.8716L10.9999 17.9578L6.26275 20.8716C6.00347 21.0291 5.70335 21.1065 5.4002 21.0938C5.09704 21.0812 4.8044 20.9792 4.55913 20.8005C4.31386 20.6219 4.12692 20.3747 4.02185 20.0901C3.91679 19.8054 3.89829 19.4961 3.96869 19.2009L5.25869 13.7569L1.03994 10.1166C0.810533 9.91828 0.644621 9.65682 0.562925 9.36482C0.481229 9.07281 0.48737 8.76321 0.580581 8.47468C0.673791 8.18615 0.849941 7.93147 1.08703 7.74245C1.32412 7.55343 1.61164 7.43845 1.91369 7.41187L7.44494 6.96562L9.57869 1.80187C9.69419 1.52044 9.89076 1.27972 10.1434 1.11031C10.3961 0.940892 10.6934 0.850433 10.9976 0.850433C11.3018 0.850433 11.5991 0.940892 11.8518 1.11031C12.1044 1.27972 12.301 1.52044 12.4165 1.80187L14.5493 6.96562L20.0806 7.41187C20.3832 7.43746 20.6716 7.5518 20.9095 7.74056C21.1475 7.92932 21.3244 8.1841 21.4182 8.47298C21.512 8.76186 21.5185 9.072 21.4368 9.36454C21.3551 9.65707 21.1889 9.91899 20.959 10.1175L20.9646 10.1166Z" fill="black"/>
</svg>
