<svg width="21" height="21" viewBox="0 0 21 21" fill="none" xmlns="http://www.w3.org/2000/svg">
<path d="M19.963 8.69938C19.946 8.71402 19.9299 8.7293 19.9145 8.74514L15.75 12.3386C15.5383 12.5213 15.4458 12.8066 15.5101 13.0788L16.7954 18.5228L16.796 18.5255C16.8324 18.6769 16.823 18.8356 16.7692 18.9817C16.7153 19.1277 16.6194 19.2545 16.4935 19.3461C16.3676 19.4377 16.2174 19.4899 16.0619 19.4961C15.9066 19.5023 15.753 19.4625 15.6204 19.3817C15.6201 19.3815 15.6198 19.3813 15.6196 19.3812L10.8872 16.4686C10.6462 16.3203 10.3422 16.3203 10.1011 16.4685L5.36737 19.3802C5.36692 19.3805 5.36647 19.3808 5.36602 19.381C5.23353 19.4612 5.08032 19.5005 4.92557 19.4941C4.7703 19.4876 4.62041 19.4353 4.49478 19.3438C4.36915 19.2523 4.27341 19.1257 4.21959 18.9799C4.16578 18.8341 4.1563 18.6757 4.19236 18.5245L4.19262 18.5234L5.48262 13.0794C5.54715 12.807 5.45469 12.5214 5.2428 12.3386L1.0245 8.69868C1.02436 8.69855 1.02421 8.69843 1.02407 8.6983C0.906382 8.59644 0.821268 8.4622 0.77933 8.31231C0.737341 8.16223 0.740497 8.0031 0.788405 7.8548C0.836313 7.7065 0.926849 7.57561 1.04871 7.47846C1.16997 7.38178 1.3169 7.32279 1.47131 7.30875L6.99939 6.86275C7.28021 6.8401 7.52464 6.66198 7.63224 6.4016L9.76599 1.23786L9.76667 1.23618C9.82569 1.09238 9.92614 0.969369 10.0552 0.882796C10.1844 0.796225 10.3363 0.75 10.4917 0.75C10.6472 0.75 10.7991 0.796224 10.9282 0.882796C11.0573 0.969369 11.1578 1.09238 11.2168 1.23618L11.2174 1.23775L13.3503 6.4015C13.4578 6.66193 13.7023 6.84009 13.9831 6.86275L19.5115 7.30876C19.5119 7.3088 19.5123 7.30883 19.5127 7.30886C19.6678 7.32222 19.8156 7.38093 19.9376 7.4777C20.0599 7.57472 20.1508 7.70567 20.199 7.85415C20.2472 8.00262 20.2505 8.16203 20.2086 8.31238C20.1666 8.46274 20.0812 8.59736 19.963 8.69938Z" stroke="black" stroke-width="1.5" stroke-linejoin="round"/>
</svg>
